<?xml version="1.0" encoding="UTF-8" standalone="no"?>
<!-- Created with Inkscape (http://www.inkscape.org/) -->

<svg
   xmlns:dc="http://purl.org/dc/elements/1.1/"
   xmlns:cc="http://creativecommons.org/ns#"
   xmlns:rdf="http://www.w3.org/1999/02/22-rdf-syntax-ns#"
   xmlns:svg="http://www.w3.org/2000/svg"
   xmlns="http://www.w3.org/2000/svg"
   xmlns:sodipodi="http://sodipodi.sourceforge.net/DTD/sodipodi-0.dtd"
   xmlns:inkscape="http://www.inkscape.org/namespaces/inkscape"
   width="256"
   height="256"
   viewBox="0 0 256 256"
   id="svg3398"
   version="1.1"
   inkscape:version="0.91 r13725"
   sodipodi:docname="vestige2.svg">
  <defs
     id="defs3400" />
  <sodipodi:namedview
     id="base"
     pagecolor="#ffffff"
     bordercolor="#666666"
     borderopacity="1.0"
     inkscape:pageopacity="0.0"
     inkscape:pageshadow="2"
     inkscape:zoom="1"
     inkscape:cx="194.10993"
     inkscape:cy="115.25427"
     inkscape:document-units="px"
     inkscape:current-layer="layer1"
     showgrid="false"
     units="px"
     inkscape:window-width="1440"
     inkscape:window-height="801"
     inkscape:window-x="0"
     inkscape:window-y="0"
     inkscape:window-maximized="1" />
  <metadata
     id="metadata3403">
    <rdf:RDF>
      <cc:Work
         rdf:about="">
        <dc:format>image/svg+xml</dc:format>
        <dc:type
           rdf:resource="http://purl.org/dc/dcmitype/StillImage" />
        <dc:title></dc:title>
      </cc:Work>
    </rdf:RDF>
  </metadata>
  <g
     inkscape:label="Calque 1"
     inkscape:groupmode="layer"
     id="layer1"
     transform="translate(0,-796.36216)">
    <g
       style="font-style:normal;font-weight:normal;font-size:40px;line-height:125%;font-family:sans-serif;letter-spacing:0px;word-spacing:0px;fill:#000000;fill-opacity:1;stroke:none;stroke-width:1px;stroke-linecap:butt;stroke-linejoin:miter;stroke-opacity:1"
       id="flowRoot3406" />
    <g
       transform="matrix(1.1643665,0,0,1.1643665,-44.318511,562.41281)"
       style="font-style:normal;font-variant:normal;font-weight:bold;font-stretch:normal;font-size:325px;line-height:125%;font-family:Copperplate;-inkscape-font-specification:'Copperplate, Bold';text-align:start;letter-spacing:0px;word-spacing:0px;writing-mode:lr-tb;text-anchor:start;fill:#ffffff;fill-opacity:1;stroke:#000000;stroke-width:15.73913479;stroke-linecap:butt;stroke-linejoin:miter;stroke-miterlimit:4;stroke-dasharray:none;stroke-opacity:1"
       id="flowRoot3414">
      <path
         d="m 116.05,392.37551 q 2.925,-0.65 3.9,-1.3 0.975,-0.65 0.975,-1.625 0,-0.65 -2.6,-6.5 -2.6,-6.175 -6.825,-15.925 -3.9,-9.75 -9.425,-22.1 -5.525,-12.35 -11.375,-25.675 -5.525,-13.325 -11.375,-26.325 -5.85,-13 -10.725,-24.05 -4.875,-11.05 -8.45,-19.175 -3.25,-8.125 -4.55,-11.375 -2.275,-5.525 -3.575,-7.15 -1.3,-1.625 -3.9,-1.95 l 0,-3.9 66.625,0 0,3.9 q -3.9,0.325 -5.2,1.3 -1.3,0.975 -1.3,2.6 0,0.975 1.3,4.225 1.625,2.925 6.175,13 4.875,10.075 13.65,29.25 9.1,19.175 24.375,52.325 14.625,-32.175 23.075,-51.025 8.775,-19.175 13.325,-29.25 4.875,-10.075 6.175,-13.65 1.3,-3.9 1.3,-5.2 0,-1.625 -0.975,-2.275 -0.975,-0.975 -3.9,-1.3 l 0,-3.9 55.9,0 0,3.9 q -1.95,0.65 -3.25,1.3 -0.975,0.65 -1.625,2.925 -0.65,1.95 -3.9,9.425 -3.25,7.475 -8.125,18.525 -4.55,11.05 -10.4,24.7 -5.525,13.325 -11.7,27.3 -5.85,13.975 -11.7,27.3 -5.525,13.325 -10.075,23.725 -4.225,10.4 -6.825,17.225 -2.6,6.825 -2.6,7.475 0,2.925 4.55,2.925 l 0,4.225 -66.95,0 0,-3.9 z"
         style=""
         id="path4294" />
    </g>
  </g>
</svg>
